<?xml version="1.0" encoding="UTF-8" standalone="no"?>
<!-- Created with Inkscape (http://www.inkscape.org/) -->

<svg
   xmlns:dc="http://purl.org/dc/elements/1.1/"
   xmlns:cc="http://creativecommons.org/ns#"
   xmlns:rdf="http://www.w3.org/1999/02/22-rdf-syntax-ns#"
   xmlns:svg="http://www.w3.org/2000/svg"
   xmlns="http://www.w3.org/2000/svg"
   xmlns:sodipodi="http://sodipodi.sourceforge.net/DTD/sodipodi-0.dtd"
   xmlns:inkscape="http://www.inkscape.org/namespaces/inkscape"
   width="1024"
   height="500"
   id="svg2"
   version="1.1"
   inkscape:version="0.48.4 r9939"
   sodipodi:docname="feature_graphic.svg">
  <defs
     id="defs4" />
  <sodipodi:namedview
     id="base"
     pagecolor="#ffffff"
     bordercolor="#666666"
     borderopacity="1.0"
     inkscape:pageopacity="0.0"
     inkscape:pageshadow="2"
     inkscape:zoom="0.98994949"
     inkscape:cx="565.25097"
     inkscape:cy="281.55159"
     inkscape:document-units="px"
     inkscape:current-layer="layer1"
     showgrid="false"
     inkscape:window-width="1394"
     inkscape:window-height="782"
     inkscape:window-x="51"
     inkscape:window-y="137"
     inkscape:window-maximized="0" />
  <metadata
     id="metadata7">
    <rdf:RDF>
      <cc:Work
         rdf:about="">
        <dc:format>image/svg+xml</dc:format>
        <dc:type
           rdf:resource="http://purl.org/dc/dcmitype/StillImage" />
        <dc:title></dc:title>
      </cc:Work>
    </rdf:RDF>
  </metadata>
  <g
     inkscape:label="Layer 1"
     inkscape:groupmode="layer"
     id="layer1"
     transform="translate(0,-552.36217)">
    <path
       inkscape:connector-curvature="0"
       d="m 374.48076,652.32911 v 86.12474 h -82.94708 v -86.12474 c 0,-1.27876 -0.38709,-2.43589 -1.01265,-3.27681 -0.62556,-0.83744 -1.48959,-1.3552 -2.44348,-1.3552 -1.90779,0 -3.45613,2.0745 -3.45613,4.63201 v 86.12474 h -85.56338 c -1.2684,0 -2.41583,0.38919 -3.24876,1.01814 -0.83293,0.62895 -1.34789,1.49767 -1.34789,2.45674 0,1.91813 2.05985,3.47487 4.59665,3.47487 h 85.56338 v 83.39697 h -85.56338 c -1.2684,0 -2.41583,0.38919 -3.24876,1.01814 -0.83293,0.62895 -1.34789,1.49767 -1.34789,2.45673 0,1.91813 2.05985,3.47488 4.59665,3.47488 h 85.56338 v 85.30467 c 0,1.27876 0.38708,2.43589 1.01264,3.27681 0.62556,0.83744 1.4896,1.3552 2.44349,1.3552 1.90778,0 3.45613,-2.0745 3.45613,-4.63201 v -85.30467 h 82.94708 v 85.30467 c 0,1.27876 0.38709,2.43589 1.01265,3.27681 0.62556,0.83744 1.48959,1.3552 2.44348,1.3552 1.90779,0 3.45613,-2.0745 3.45613,-4.63201 v -85.30467 h 84.23277 c 1.2684,0 2.41583,-0.38919 3.24876,-1.01814 0.82947,-0.62895 1.34443,-1.49767 1.34443,-2.45674 0,-1.91813 -2.05639,-3.47487 -4.59319,-3.47487 H 381.39302 V 745.4036 h 84.23277 c 1.2684,0 2.41583,-0.38919 3.24876,-1.01814 0.82947,-0.62895 1.34443,-1.49767 1.34443,-2.45673 0,-1.91813 -2.05639,-3.47488 -4.59319,-3.47488 h -84.23277 v -86.12474 c 0,-1.27876 -0.38709,-2.43589 -1.01264,-3.27681 -0.62556,-0.83744 -1.4896,-1.3552 -2.44349,-1.3552 -1.90778,0 -3.45613,2.0745 -3.45613,4.63201 z m 0,176.47146 H 291.53368 V 745.4036 h 82.94708 v 83.39697 z"
       id="path3" />
    <path
       d="m 209.04688,662.92028 c 2.84439,-2.8633 7.46178,-2.86677 10.30963,0 l 23.11113,23.23648 23.11113,-23.23648 c 2.84785,-2.86677 7.46524,-2.85982 10.30963,0 1.42393,1.43165 2.13589,3.30808 2.13589,5.18451 -0.003,1.87296 -0.71196,3.74939 -2.13589,5.18451 l -23.11113,23.23648 23.11113,23.23648 c 2.84785,2.8633 2.8444,7.50573 0,10.36555 -1.42392,1.43165 -3.29023,2.14747 -5.15654,2.15095 -1.86285,-0.003 -3.72916,-0.71583 -5.15654,-2.15095 l -23.11114,-23.23648 -23.11113,23.23648 c -2.84785,2.8633 -7.46524,2.85982 -10.30963,0 -2.84439,-2.85982 -2.84785,-7.50225 0,-10.36555 l 23.11113,-23.23648 -23.11113,-23.23648 c -2.84439,-2.87024 -2.84439,-7.5092 0.003,-10.36902 z"
       id="path9"
       inkscape:connector-curvature="0" />
    <path
       inkscape:connector-curvature="0"
       d="m 389.27645,844.368 c 2.84439,-2.85982 7.46178,-2.86329 10.30963,0 l 23.11113,23.23648 23.11114,-23.23648 c 2.84785,-2.86329 7.46523,-2.85982 10.30963,0 1.42392,1.43165 2.13589,3.30808 2.13589,5.18452 -0.003,1.87295 -0.71197,3.74938 -2.13589,5.18451 l -23.11113,23.23648 23.11113,23.23648 c 2.84785,2.86329 2.84439,7.50573 0,10.36555 -1.42393,1.43164 -3.29024,2.14747 -5.15655,2.15094 -1.86285,-0.003 -3.72916,-0.71582 -5.15654,-2.15094 l -23.11113,-23.23648 -23.11113,23.23648 c -2.84785,2.86329 -7.46524,2.85982 -10.30964,0 -2.84439,-2.85982 -2.84785,-7.50226 0,-10.36555 l 23.11114,-23.23648 -23.11114,-23.23648 c -2.84439,-2.86677 -2.84093,-7.50573 0.003,-10.36903 z"
       id="path15" />
    <path
       d="m 201.45227,878.77193 c 0,21.91255 17.66773,39.67611 39.46208,39.67611 21.79435,0 39.46208,-17.76356 39.46208,-39.67611 0,-21.91255 -17.66773,-39.67611 -39.46208,-39.67611 -21.79435,0 -39.46208,17.76356 -39.46208,39.67611 z m 69.63754,0.26061 c 0,16.89832 -13.62406,30.59974 -30.43467,30.59974 -16.80715,0 -30.43467,-13.70142 -30.43467,-30.59974 0,-16.90178 13.62752,-30.59973 30.43467,-30.59973 16.81061,0 30.43467,13.69795 30.43467,30.59973 z"
       id="path19"
       inkscape:connector-curvature="0" />
    <path
       d="m 290.8578,786.69205 c 0,21.91255 17.66773,39.67611 39.46208,39.67611 21.79435,0 39.46208,-17.76356 39.46208,-39.67611 0,-21.91255 -17.66773,-39.67611 -39.46208,-39.67611 -21.79435,0 -39.46208,17.76356 -39.46208,39.67611 z m 69.63754,0.26061 c 0,16.89832 -13.62406,30.59974 -30.43467,30.59974 -16.80715,0 -30.43467,-13.70142 -30.43467,-30.59974 0,-16.90178 13.62752,-30.59973 30.43467,-30.59973 16.81061,0 30.43467,13.69795 30.43467,30.59973 z"
       id="path19-1"
       inkscape:connector-curvature="0" />
    <g
       transform="matrix(1.4734228,0,0,1.4961677,16.402669,713.95114)"
       id="g3044">
      <g
         id="g4041">
        <g
           id="Captions" />
        <path
           inkscape:connector-curvature="0"
           id="path10"
           d="M 26.53,11.559 1.858,23.755 21.425,23.045 45.955,10 26.53,11.559 z m -2.351,6.292 c -1.714,0.655 -3.201,0.929 -3.322,0.613 -0.122,-0.318 1.169,-1.105 2.882,-1.761 1.713,-0.655 3.201,-0.929 3.322,-0.612 0.122,0.317 -1.169,1.105 -2.882,1.76 z" />
        <path
           inkscape:connector-curvature="0"
           id="path14"
           d="M 20.576,24.037 2.284,24.747 13.344,54.24 31.635,56.65 20.576,24.037 z M 9.602,34.523 C 8.656,34.9 7.321,33.781 6.621,32.023 5.922,30.265 6.12,28.534 7.065,28.157 c 0.946,-0.377 2.28,0.742 2.981,2.5 0.7,1.758 0.501,3.489 -0.444,3.866 z m 6.464,17.039 c -0.953,0.358 -2.267,-0.785 -2.935,-2.556 -0.669,-1.771 -0.438,-3.497 0.514,-3.856 0.953,-0.36 2.266,0.784 2.935,2.555 0.669,1.769 0.439,3.496 -0.514,3.857 z M 20.46,34.79 c -1.063,0.406 -2.527,-0.84 -3.268,-2.784 -0.739,-1.944 -0.478,-3.848 0.586,-4.252 1.065,-0.407 2.528,0.84 3.268,2.783 0.742,1.943 0.479,3.848 -0.586,4.253 z m 6.115,18.433 c -1.039,0.346 -2.405,-0.952 -3.05,-2.896 -0.646,-1.943 -0.327,-3.801 0.711,-4.146 1.039,-0.346 2.406,0.952 3.051,2.896 0.646,1.944 0.327,3.8 -0.712,4.146 z" />
        <path
           inkscape:connector-curvature="0"
           id="path18"
           d="M 81.827,55.799 70.343,88.127 86.507,76.781 97,48 81.827,55.799 z m -4.574,23.354 c -1.008,1.819 -2.241,3.064 -2.756,2.775 -0.513,-0.282 -0.112,-1.986 0.895,-3.805 1.009,-1.816 2.242,-3.061 2.756,-2.775 0.514,0.286 0.113,1.99 -0.895,3.805 z m 8.081,-11.922 c -0.967,1.745 -2.169,2.932 -2.683,2.646 -0.515,-0.286 -0.146,-1.931 0.823,-3.679 0.968,-1.745 2.169,-2.932 2.682,-2.646 0.514,0.287 0.147,1.931 -0.822,3.679 z m 4.761,-8.789 c -0.513,-0.284 -0.145,-1.933 0.823,-3.679 0.969,-1.746 2.169,-2.932 2.683,-2.646 0.514,0.284 0.146,1.931 -0.822,3.678 -0.968,1.746 -2.17,2.933 -2.684,2.647 z" />
        <path
           inkscape:connector-curvature="0"
           id="path22"
           d="M 50.209,36.09 55.217,34.227 47.09,10.283 21.993,24.037 32.769,56.649 44.64,49.254 49.784,36.656 50.209,36.09 z M 35.627,50.458 c -1.736,0 -3.143,-1.756 -3.143,-3.923 0,-2.166 1.407,-3.923 3.143,-3.923 1.736,0 3.144,1.757 3.144,3.923 0,2.167 -1.408,3.923 -3.144,3.923 z m 8.84,-27.13 c -1.684,0 -3.049,-1.649 -3.049,-3.685 0,-2.035 1.365,-3.685 3.049,-3.685 1.684,0 3.048,1.65 3.048,3.685 0,2.036 -1.365,3.685 -3.048,3.685 z" />
        <path
           inkscape:connector-curvature="0"
           id="path24"
           d="M 51.484,38.642 38.865,69.551 69.493,88.127 80.976,55.231 51.484,38.642 z m -4.206,32.471 c -1.906,0 -3.45,-1.668 -3.45,-3.723 0,-2.057 1.543,-3.723 3.45,-3.723 1.907,0 3.45,1.666 3.45,3.723 10e-4,2.055 -1.543,3.723 -3.45,3.723 z m 3.261,-22.415 c 0,-0.025 0.004,-0.051 0.004,-0.075 0.035,-2.163 1.628,-3.907 3.588,-3.907 0.66,0 1.277,0.201 1.809,0.546 1.066,0.691 1.784,1.969 1.784,3.437 0,2.199 -1.608,3.981 -3.593,3.981 -1.984,0 -3.592,-1.783 -3.592,-3.982 z m 5.342,14.366 c 0,-2.197 1.607,-3.981 3.592,-3.981 1.985,0 3.592,1.784 3.592,3.981 0,2.201 -1.607,3.982 -3.592,3.982 -1.985,0 -3.592,-1.78 -3.592,-3.982 z m 9.404,18.588 c -2.062,0 -3.733,-1.783 -3.733,-3.981 0,-2.199 1.671,-3.982 3.733,-3.982 2.063,0 3.734,1.783 3.734,3.982 10e-4,2.198 -1.67,3.981 -3.734,3.981 z m 6.948,-18.953 c -1.983,0 -3.592,-1.782 -3.592,-3.98 0,-2.2 1.608,-3.983 3.592,-3.983 1.984,0 3.592,1.783 3.592,3.983 0,2.198 -1.608,3.98 -3.592,3.98 z"
           style="fill:#000000;fill-opacity:1;stroke:#ffffff;stroke-width:1;stroke-linecap:butt;stroke-linejoin:miter;stroke-miterlimit:4;stroke-opacity:0;stroke-dasharray:none;marker-start:none" />
        <path
           inkscape:connector-curvature="0"
           id="path26"
           d="M 68.499,31.907 51.91,38.074 81.827,54.663 97,47.007 68.499,31.907 z m -3.857,9.661 c -0.261,0.682 -2.015,0.646 -3.916,-0.083 -1.104,-0.423 -2.014,-0.986 -2.531,-1.518 l -0.438,-1.036 c 0.013,-0.035 0.033,-0.065 0.054,-0.096 0.387,-0.581 2.056,-0.514 3.861,0.178 1.901,0.728 3.23,1.872 2.97,2.555 z m 9.122,4.773 c -0.262,0.683 -2.016,0.646 -3.917,-0.082 -1.901,-0.728 -3.229,-1.872 -2.968,-2.554 0.261,-0.683 2.015,-0.646 3.915,0.082 1.901,0.728 3.231,1.872 2.97,2.554 z M 74.33,37.74 c -0.26,0.682 -2.015,0.645 -3.915,-0.083 -1.901,-0.728 -3.231,-1.871 -2.97,-2.554 0.262,-0.682 2.013,-0.645 3.916,0.083 1.901,0.728 3.23,1.87 2.969,2.554 z m 8.225,13.28 c -0.262,0.683 -2.015,0.647 -3.916,-0.081 -1.901,-0.728 -3.229,-1.871 -2.971,-2.554 0.262,-0.684 2.016,-0.646 3.917,0.082 1.901,0.728 3.231,1.87 2.97,2.553 z m 0.047,-8.791 c -0.262,0.682 -2.013,0.646 -3.916,-0.083 -1.902,-0.727 -3.229,-1.871 -2.969,-2.554 0.26,-0.682 2.014,-0.646 3.915,0.083 1.901,0.729 3.231,1.871 2.97,2.554 z m 4.637,4.266 c -1.9,-0.728 -3.229,-1.871 -2.969,-2.553 0.262,-0.684 2.016,-0.646 3.917,0.082 1.901,0.728 3.229,1.872 2.97,2.554 -0.262,0.682 -2.016,0.646 -3.918,-0.083 z" />
        <path
           style="fill:none;stroke:#ffffff;stroke-width:1px;stroke-linecap:butt;stroke-linejoin:miter;stroke-opacity:1"
           d="M 51.176853,37.774603 81.494057,55.010331 69.915183,88.155961"
           id="path4031"
           inkscape:connector-curvature="0" />
        <path
           style="fill:none;stroke:#ffffff;stroke-width:1px;stroke-linecap:butt;stroke-linejoin:miter;stroke-opacity:1"
           d="M 97.050406,47.408933 81.494057,55.275496"
           id="path4033"
           inkscape:connector-curvature="0" />
        <path
           style="fill:none;stroke:#ffffff;stroke-width:2;stroke-linecap:butt;stroke-linejoin:miter;stroke-miterlimit:4;stroke-opacity:1;stroke-dasharray:none"
           d="m 46.050329,48.999923 4.861359,-11.667262 4.949748,-1.856155"
           id="path4035"
           inkscape:connector-curvature="0" />
        <path
           style="fill:none;stroke:#ffffff;stroke-width:1px;stroke-linecap:butt;stroke-linejoin:miter;stroke-opacity:1"
           d="M 32.438524,56.68971 21.036427,23.632467 2.032932,24.251186"
           id="path4037"
           inkscape:connector-curvature="0" />
        <path
           style="fill:none;stroke:#ffffff;stroke-width:1px;stroke-linecap:butt;stroke-linejoin:miter;stroke-opacity:1"
           d="M 46.669048,9.7554968 21.566757,23.632467"
           id="path4039"
           inkscape:connector-curvature="0" />
      </g>
      <path
         inkscape:connector-curvature="0"
         id="path2994"
         d="m 15.086003,51.322159 c -1.664894,-0.856724 -2.819738,-4.375923 -1.843325,-5.617231 0.583562,-0.741878 1.449697,-0.55335 2.326909,0.50649 0.795333,0.960915 1.075669,1.716409 1.159165,3.123912 0.0756,1.27433 0.05295,1.383643 -0.375367,1.811961 -0.530326,0.530326 -0.566825,0.535361 -1.267382,0.174868 z"
         style="fill:#ff6600;fill-opacity:0;fill-rule:nonzero;stroke:#ffffff;stroke-width:0.35355338;stroke-linecap:butt;stroke-linejoin:miter;stroke-miterlimit:4;stroke-opacity:0;stroke-dasharray:none;stroke-dashoffset:0" />
      <path
         inkscape:connector-curvature="0"
         id="path2996"
         d="M 8.093629,33.944233 C 6.7495111,32.836298 5.9364629,30.083448 6.5836947,28.83184 c 0.9318463,-1.801992 3.6990473,0.939289 3.7213773,3.686519 0.01504,1.850925 -0.9448979,2.469868 -2.211443,1.425874 z"
         style="fill:#ff6600;fill-opacity:0;fill-rule:nonzero;stroke:#ffffff;stroke-width:0.35355338;stroke-linecap:butt;stroke-linejoin:miter;stroke-miterlimit:4;stroke-opacity:0;stroke-dasharray:none;stroke-dashoffset:0" />
      <path
         inkscape:connector-curvature="0"
         id="path2998"
         d="m 19.298949,34.499962 c -1.272965,-0.710184 -2.193036,-2.453242 -2.318596,-4.392541 -0.07724,-1.192966 -0.05555,-1.283508 0.440501,-1.838683 0.431653,-0.483104 0.604017,-0.563278 0.998251,-0.464332 1.828072,0.458817 3.571723,4.391419 2.697043,6.082865 -0.266001,0.514389 -0.759292,0.92205 -1.115728,0.92205 -0.08083,0 -0.396491,-0.139212 -0.701471,-0.309359 z"
         style="fill:#ff6600;fill-opacity:0;fill-rule:nonzero;stroke:#ffffff;stroke-width:0.35355338;stroke-linecap:butt;stroke-linejoin:miter;stroke-miterlimit:4;stroke-opacity:0;stroke-dasharray:none;stroke-dashoffset:0" />
      <path
         inkscape:connector-curvature="0"
         id="path3000"
         d="m 25.099473,52.577465 c -1.406897,-1.271047 -2.197134,-4.215315 -1.495128,-5.570552 0.265593,-0.512733 0.431324,-0.627954 0.9675,-0.672635 2.113874,-0.176156 3.97585,5.362122 2.216946,6.594106 -0.573877,0.401959 -0.9402,0.325864 -1.689318,-0.350919 z"
         style="fill:#ff6600;fill-opacity:0;fill-rule:nonzero;stroke:#ffffff;stroke-width:0.35355338;stroke-linecap:butt;stroke-linejoin:miter;stroke-miterlimit:4;stroke-opacity:0;stroke-dasharray:none;stroke-dashoffset:0" />
      <path
         inkscape:connector-curvature="0"
         id="path3002"
         d="M 34.35096,49.946479 C 32.096118,48.562 32.076152,44.478233 34.31754,43.111586 c 2.072459,-1.263644 4.644578,1.080938 4.308582,3.927431 -0.29801,2.524681 -2.480839,4.009183 -4.275166,2.907462 z"
         style="fill:#ff6600;fill-opacity:0;fill-rule:nonzero;stroke:#ffffff;stroke-width:0.35355338;stroke-linecap:butt;stroke-linejoin:miter;stroke-miterlimit:4;stroke-opacity:0;stroke-dasharray:none;stroke-dashoffset:0" />
      <path
         inkscape:connector-curvature="0"
         id="path3004"
         d="m 43.702489,23.039037 c -1.967563,-0.666376 -2.766497,-3.439129 -1.576182,-5.470247 0.679178,-1.15893 1.645428,-1.644231 2.830916,-1.421832 2.418644,0.45374 3.248303,4.326303 1.328492,6.200948 -0.805765,0.786809 -1.640953,1.01026 -2.583226,0.691131 l 0,0 z"
         style="fill:#ff6600;fill-opacity:0;fill-rule:nonzero;stroke:#ffffff;stroke-width:0.35355338;stroke-linecap:butt;stroke-linejoin:miter;stroke-miterlimit:4;stroke-opacity:0;stroke-dasharray:none;stroke-dashoffset:0" />
      <path
         inkscape:connector-curvature="0"
         id="path3006"
         d="m 21.048337,18.336534 c 0.193193,-0.579579 3.58966,-2.00357 5.242851,-2.1981 l 0.81563,-0.09597 -0.441941,0.36794 c -0.66727,0.555538 -2.492267,1.382951 -3.927695,1.780728 -1.47718,0.409347 -1.78568,0.435908 -1.688845,0.145406 z"
         style="fill:#ff6600;fill-opacity:0;fill-rule:nonzero;stroke:#ffffff;stroke-width:0.35355338;stroke-linecap:butt;stroke-linejoin:miter;stroke-miterlimit:4;stroke-opacity:0;stroke-dasharray:none;stroke-dashoffset:0" />
      <path
         inkscape:connector-curvature="0"
         id="path3008"
         d="m 53.383586,52.439255 c -0.938572,-0.191683 -2.171067,-1.341158 -2.497028,-2.328829 -0.122209,-0.370299 -0.187267,-1.162149 -0.14719,-1.791537 0.239148,-3.755755 4.794191,-4.738179 6.433494,-1.387565 1.390695,2.842479 -0.855281,6.107135 -3.789276,5.507931 z"
         style="fill:#ff6600;fill-opacity:0;fill-rule:nonzero;stroke:#ffffff;stroke-width:0.35355338;stroke-linecap:butt;stroke-linejoin:miter;stroke-miterlimit:4;stroke-opacity:0;stroke-dasharray:none;stroke-dashoffset:0" />
      <path
         inkscape:connector-curvature="0"
         id="path3010"
         d="m 70.904351,62.272528 c -0.838003,-0.41312 -1.763998,-1.522377 -1.999393,-2.395091 -0.746938,-2.769227 1.567906,-5.590774 4.040524,-4.924967 3.237511,0.871771 3.70332,5.896986 0.674129,7.272598 -0.891846,0.405004 -1.952387,0.423541 -2.71526,0.04746 l 0,0 z"
         style="fill:#ff6600;fill-opacity:0;fill-rule:nonzero;stroke:#ffffff;stroke-width:0.35355338;stroke-linecap:butt;stroke-linejoin:miter;stroke-miterlimit:4;stroke-opacity:0;stroke-dasharray:none;stroke-dashoffset:0" />
      <path
         inkscape:connector-curvature="0"
         id="path3012"
         d="m 58.207012,66.648075 c -1.848475,-0.839559 -2.733376,-3.329219 -1.86378,-5.243727 0.406991,-0.896034 1.653223,-1.981781 2.44526,-2.130368 1.522427,-0.285609 2.927807,0.444765 3.651938,1.897907 1.075479,2.158205 0.229828,4.657872 -1.872944,5.53625 -0.855621,0.357414 -1.476067,0.341626 -2.360474,-0.06006 l 0,0 z"
         style="fill:#ff6600;fill-opacity:0;fill-rule:nonzero;stroke:#ffffff;stroke-width:0.35355338;stroke-linecap:butt;stroke-linejoin:miter;stroke-miterlimit:4;stroke-opacity:0;stroke-dasharray:none;stroke-dashoffset:0" />
      <path
         inkscape:connector-curvature="0"
         id="path3014"
         d="m 63.876371,81.233066 c -1.243828,-0.542873 -2.20645,-2.15267 -2.208722,-3.693656 -0.0028,-1.919079 1.739877,-3.697794 3.622936,-3.697794 1.928804,0 3.621951,1.793233 3.621951,3.836054 0,1.420289 -0.935672,2.920051 -2.194413,3.517363 -0.715429,0.339493 -2.108335,0.358135 -2.841752,0.03803 z"
         style="fill:#ff6600;fill-opacity:0;fill-rule:nonzero;stroke:#ffffff;stroke-width:0.35355338;stroke-linecap:butt;stroke-linejoin:miter;stroke-miterlimit:4;stroke-opacity:0;stroke-dasharray:none;stroke-dashoffset:0" />
      <path
         inkscape:connector-curvature="0"
         id="path3016"
         d="m 45.929164,70.650796 c -2.089236,-1.056708 -2.587644,-3.929921 -0.996142,-5.742542 1.259155,-1.434099 3.236979,-1.48385 4.604992,-0.115837 1.813736,1.813736 1.191148,4.995752 -1.170532,5.982525 -0.897379,0.374948 -1.513579,0.343575 -2.438318,-0.124146 z"
         style="fill:#ff6600;fill-opacity:0;fill-rule:nonzero;stroke:#ffffff;stroke-width:0.35355338;stroke-linecap:butt;stroke-linejoin:miter;stroke-miterlimit:4;stroke-opacity:0;stroke-dasharray:none;stroke-dashoffset:0" />
      <path
         inkscape:connector-curvature="0"
         id="path3018"
         d="m 74.441884,81.004349 c 0.208085,-1.846123 2.768928,-5.782402 3.563516,-5.47749 0.367566,0.141048 0.350973,0.558328 -0.07097,1.784719 -0.696369,2.02403 -2.500741,4.520344 -3.267371,4.520344 -0.274692,0 -0.305638,-0.113732 -0.225178,-0.827573 z"
         style="fill:#ff6600;fill-opacity:0;fill-rule:nonzero;stroke:#ffffff;stroke-width:0.35355338;stroke-linecap:butt;stroke-linejoin:miter;stroke-miterlimit:4;stroke-opacity:0;stroke-dasharray:none;stroke-dashoffset:0" />
      <path
         inkscape:connector-curvature="0"
         id="path3020"
         d="m 82.589729,69.544611 c -0.441506,-1.150547 2.297483,-5.920688 3.399626,-5.920688 0.247008,0 0.280463,0.143497 0.208372,0.893762 -0.112431,1.170087 -1.195289,3.295845 -2.25254,4.421959 -0.852149,0.907652 -1.182694,1.055181 -1.355458,0.604967 z"
         style="fill:#ff6600;fill-opacity:0;fill-rule:nonzero;stroke:#ffffff;stroke-width:0.35355338;stroke-linecap:butt;stroke-linejoin:miter;stroke-miterlimit:4;stroke-opacity:0;stroke-dasharray:none;stroke-dashoffset:0" />
      <path
         inkscape:connector-curvature="0"
         id="path3022"
         d="m 90.012513,58.049338 c -0.151509,-0.394826 0.260291,-1.779798 0.891732,-2.999085 0.646021,-1.247441 2.271382,-3.020538 2.58895,-2.82427 0.669108,0.413532 -0.629386,3.684771 -2.076926,5.232308 -0.835286,0.892989 -1.224934,1.057049 -1.403756,0.591047 z"
         style="fill:#ff6600;fill-opacity:0;fill-rule:nonzero;stroke:#ffffff;stroke-width:0.35355338;stroke-linecap:butt;stroke-linejoin:miter;stroke-miterlimit:4;stroke-opacity:0;stroke-dasharray:none;stroke-dashoffset:0" />
      <path
         inkscape:connector-curvature="0"
         id="path3024"
         d="m 88.801886,46.826625 c -1.668309,-0.333968 -3.446878,-1.266766 -4.171277,-2.187689 -0.344399,-0.437833 -0.356283,-0.516458 -0.11459,-0.75815 0.555057,-0.555058 2.932332,-0.188835 4.696638,0.723523 0.859951,0.444698 1.798937,1.341534 1.798937,1.718185 0,0.590441 -0.831226,0.78008 -2.209708,0.504131 z"
         style="fill:#ff6600;fill-opacity:0;fill-rule:nonzero;stroke:#ffffff;stroke-width:0.35355338;stroke-linecap:butt;stroke-linejoin:miter;stroke-miterlimit:4;stroke-opacity:0;stroke-dasharray:none;stroke-dashoffset:0" />
      <path
         inkscape:connector-curvature="0"
         id="path3026"
         d="M 79.136615,42.161739 C 77.743764,41.674344 76.97391,41.222837 76.2557,40.472128 c -0.640116,-0.669082 -0.470528,-1.122323 0.45481,-1.215523 2.089375,-0.210443 6.315056,1.966187 5.704817,2.938526 -0.300478,0.478773 -1.860475,0.462886 -3.278712,-0.03339 z"
         style="fill:#ff6600;fill-opacity:0;fill-rule:nonzero;stroke:#ffffff;stroke-width:0.35355338;stroke-linecap:butt;stroke-linejoin:miter;stroke-miterlimit:4;stroke-opacity:0;stroke-dasharray:none;stroke-dashoffset:0" />
      <path
         inkscape:connector-curvature="0"
         id="path3028"
         d="m 72.008099,37.988368 c -1.707823,-0.34048 -3.916697,-1.520978 -4.345635,-2.322456 -0.701751,-1.311233 2.852755,-1.081155 5.052742,0.327057 1.555612,0.995747 1.91139,1.674886 1.049152,2.002708 -0.511119,0.194327 -0.749852,0.193334 -1.756259,-0.0073 z"
         style="fill:#ff6600;fill-opacity:0;fill-rule:nonzero;stroke:#ffffff;stroke-width:0.35355338;stroke-linecap:butt;stroke-linejoin:miter;stroke-miterlimit:4;stroke-opacity:0;stroke-dasharray:none;stroke-dashoffset:0" />
      <path
         inkscape:connector-curvature="0"
         id="path3030"
         d="m 61.034369,41.466326 c -1.329641,-0.498986 -2.257641,-1.063009 -2.723565,-1.655335 -0.919451,-1.168893 -0.02563,-1.598244 2.148382,-1.031986 2.169528,0.565091 4.113264,1.856125 3.998674,2.65593 -0.07901,0.551484 -1.990895,0.569015 -3.423491,0.03139 z"
         style="fill:#ff6600;fill-opacity:0;fill-rule:nonzero;stroke:#ffffff;stroke-width:0.35355338;stroke-linecap:butt;stroke-linejoin:miter;stroke-miterlimit:4;stroke-opacity:0;stroke-dasharray:none;stroke-dashoffset:0" />
      <path
         inkscape:connector-curvature="0"
         id="path3032"
         d="m 70.553209,46.386741 c -1.951147,-0.624207 -3.771598,-1.992766 -3.520653,-2.646718 0.396969,-1.034486 4.752037,0.151003 6.232848,1.696638 0.400471,0.418001 0.462517,0.583016 0.310345,0.825381 -0.245483,0.390984 -1.968047,0.462051 -3.02254,0.124699 l 0,0 z"
         style="fill:#ff6600;fill-opacity:0;fill-rule:nonzero;stroke:#ffffff;stroke-width:0.35355338;stroke-linecap:butt;stroke-linejoin:miter;stroke-miterlimit:4;stroke-opacity:0;stroke-dasharray:none;stroke-dashoffset:0" />
      <path
         inkscape:connector-curvature="0"
         id="path3034"
         d="m 79.76925,51.169265 c -2.149333,-0.601474 -4.034724,-1.877988 -3.923221,-2.656238 0.07726,-0.539238 1.75593,-0.583484 3.251746,-0.08571 1.895884,0.630909 3.799838,2.168092 3.302009,2.665921 -0.311923,0.311923 -1.649433,0.350579 -2.630534,0.07603 z"
         style="fill:#ff6600;fill-opacity:0;fill-rule:nonzero;stroke:#ffffff;stroke-width:0.35355338;stroke-linecap:butt;stroke-linejoin:miter;stroke-miterlimit:4;stroke-opacity:0;stroke-dasharray:none;stroke-dashoffset:0" />
      <path
         inkscape:connector-curvature="0"
         id="path3036"
         d="m 67.500294,46.382587 c -7.729561,-4.407274 -14.228866,-8.118637 -14.4429,-8.247473 -0.355253,-0.213843 0.29027,-0.48696 7.410422,-3.135309 4.289765,-1.595583 7.885513,-2.900844 7.99055,-2.90058 0.105037,2.64e-4 6.276514,3.224759 13.714394,7.165545 7.437879,3.940786 13.736576,7.275021 13.997104,7.40941 0.461598,0.238108 0.285118,0.340224 -6.914429,4.00085 -4.063464,2.066077 -7.458603,3.748466 -7.544756,3.738643 -0.08615,-0.0098 -6.480824,-3.623811 -14.210385,-8.031086 z m 14.670899,4.992503 c 0.682274,-0.34519 0.643871,-0.780867 -0.13406,-1.520895 -1.162551,-1.105908 -3.305371,-1.958078 -4.932245,-1.961485 -1.224757,-0.0026 -1.472866,0.116329 -1.472866,0.705794 0,1.519548 4.906216,3.602768 6.539171,2.776586 l 0,0 z m 8.855061,-4.465626 c 0.276787,-0.171063 0.178602,-0.894574 -0.183946,-1.35548 -0.409956,-0.521174 -2.426952,-1.610958 -3.520418,-1.902084 -1.002603,-0.266934 -2.625793,-0.264032 -2.950288,0.0053 -0.377381,0.313198 -0.313096,0.618818 0.269805,1.282707 0.655584,0.746668 2.295135,1.631697 3.653851,1.972346 0.954493,0.239305 2.341593,0.237902 2.730996,-0.0028 l 0,0 z m -17.33001,-0.355055 c 0.837938,-1.009654 -2.217409,-3.043017 -5.062712,-3.369281 -3.152682,-0.36151 -1.999929,2.020308 1.597737,3.301245 1.156599,0.411803 3.147233,0.45089 3.464975,0.06804 z m 8.664914,-3.973133 c 0.805377,-0.431025 0.08521,-1.55697 -1.549333,-2.422322 -3.434132,-1.818077 -6.758817,-1.255573 -4.428502,0.749259 1.584485,1.363174 4.849439,2.276962 5.977835,1.673063 z M 64.392243,41.949864 c 0.162506,-0.06236 0.279624,-0.313834 0.279624,-0.600406 0,-1.044835 -2.532539,-2.548505 -4.85607,-2.883243 -1.123202,-0.161814 -1.354086,-0.146971 -1.750101,0.112508 -0.411924,0.269903 -0.436148,0.345977 -0.24959,0.783824 0.113635,0.2667 0.314993,0.615405 0.447462,0.7749 0.311413,0.374945 2.136472,1.346807 3.097253,1.649317 0.78999,0.248735 2.560079,0.343972 3.031422,0.1631 l 0,0 z m 9.840225,-3.879234 c 0.08917,-0.05511 0.162117,-0.262206 0.162117,-0.46022 0,-1.281389 -3.176449,-2.994139 -5.593174,-3.015855 -1.532252,-0.01377 -1.883467,0.575811 -0.951108,1.596613 0.595389,0.651868 2.721095,1.724777 3.902609,1.969766 0.768542,0.15936 2.157437,0.108776 2.479556,-0.0903 l 0,0 z"
         style="fill:#ff6600;fill-opacity:0;fill-rule:nonzero;stroke:#ffffff;stroke-width:0.35355338;stroke-linecap:butt;stroke-linejoin:miter;stroke-miterlimit:4;stroke-opacity:0;stroke-dasharray:none;stroke-dashoffset:0" />
      <path
         inkscape:connector-curvature="0"
         id="path3038"
         d="m 67.500294,46.382587 c -7.729561,-4.407274 -14.228866,-8.118637 -14.4429,-8.247473 -0.355253,-0.213843 0.29027,-0.48696 7.410422,-3.135309 4.289765,-1.595583 7.885513,-2.900844 7.99055,-2.90058 0.105037,2.64e-4 6.276514,3.224759 13.714394,7.165545 7.437879,3.940786 13.736576,7.275021 13.997104,7.40941 0.461598,0.238108 0.285118,0.340224 -6.914429,4.00085 -4.063464,2.066077 -7.458603,3.748466 -7.544756,3.738643 -0.08615,-0.0098 -6.480824,-3.623811 -14.210385,-8.031086 z m 14.670899,4.992503 c 0.682274,-0.34519 0.643871,-0.780867 -0.13406,-1.520895 -1.162551,-1.105908 -3.305371,-1.958078 -4.932245,-1.961485 -1.224757,-0.0026 -1.472866,0.116329 -1.472866,0.705794 0,1.519548 4.906216,3.602768 6.539171,2.776586 l 0,0 z m 8.855061,-4.465626 c 0.276787,-0.171063 0.178602,-0.894574 -0.183946,-1.35548 -0.409956,-0.521174 -2.426952,-1.610958 -3.520418,-1.902084 -1.002603,-0.266934 -2.625793,-0.264032 -2.950288,0.0053 -0.377381,0.313198 -0.313096,0.618818 0.269805,1.282707 0.655584,0.746668 2.295135,1.631697 3.653851,1.972346 0.954493,0.239305 2.341593,0.237902 2.730996,-0.0028 l 0,0 z m -17.33001,-0.355055 c 0.837938,-1.009654 -2.217409,-3.043017 -5.062712,-3.369281 -3.152682,-0.36151 -1.999929,2.020308 1.597737,3.301245 1.156599,0.411803 3.147233,0.45089 3.464975,0.06804 z m 8.664914,-3.973133 c 0.805377,-0.431025 0.08521,-1.55697 -1.549333,-2.422322 -3.434132,-1.818077 -6.758817,-1.255573 -4.428502,0.749259 1.584485,1.363174 4.849439,2.276962 5.977835,1.673063 z M 64.392243,41.949864 c 0.162506,-0.06236 0.279624,-0.313834 0.279624,-0.600406 0,-1.044835 -2.532539,-2.548505 -4.85607,-2.883243 -1.123202,-0.161814 -1.354086,-0.146971 -1.750101,0.112508 -0.411924,0.269903 -0.436148,0.345977 -0.24959,0.783824 0.113635,0.2667 0.314993,0.615405 0.447462,0.7749 0.311413,0.374945 2.136472,1.346807 3.097253,1.649317 0.78999,0.248735 2.560079,0.343972 3.031422,0.1631 l 0,0 z m 9.840225,-3.879234 c 0.08917,-0.05511 0.162117,-0.262206 0.162117,-0.46022 0,-1.281389 -3.176449,-2.994139 -5.593174,-3.015855 -1.532252,-0.01377 -1.883467,0.575811 -0.951108,1.596613 0.595389,0.651868 2.721095,1.724777 3.902609,1.969766 0.768542,0.15936 2.157437,0.108776 2.479556,-0.0903 l 0,0 z"
         style="fill:#ff6600;fill-opacity:0;fill-rule:nonzero;stroke:#ffffff;stroke-width:0.35355338;stroke-linecap:butt;stroke-linejoin:miter;stroke-miterlimit:4;stroke-opacity:0;stroke-dasharray:none;stroke-dashoffset:0" />
      <path
         inkscape:connector-curvature="0"
         id="path3040"
         d="m 43.702489,23.039037 c -1.967563,-0.666376 -2.766497,-3.439129 -1.576182,-5.470247 0.679178,-1.15893 1.645428,-1.644231 2.830916,-1.421832 2.418644,0.45374 3.248303,4.326303 1.328492,6.200948 -0.805765,0.786809 -1.640953,1.01026 -2.583226,0.691131 l 0,0 z"
         style="fill:#ff6600;fill-opacity:0;fill-rule:nonzero;stroke:#ffffff;stroke-width:0.35355338;stroke-linecap:butt;stroke-linejoin:miter;stroke-miterlimit:4;stroke-opacity:0;stroke-dasharray:none;stroke-dashoffset:0" />
    </g>
    <path
       style="fill:#000000"
       inkscape:connector-curvature="0"
       d="m 516.18795,750.57022 c -18.27609,0 -33.09137,15.26754 -33.09137,34.10153 0,18.83398 14.81528,34.10152 33.09137,34.10152 18.27609,0 33.09138,-15.26754 33.09138,-34.10152 0,-18.83399 -14.81529,-34.10153 -33.09138,-34.10153 z m 17.93001,38.11982 -12.87806,13.27686 c -2.1468,2.2095 -3.89926,1.46068 -3.89926,-1.66529 v -10.3015 h -15.17516 c -3.03199,0 -5.51385,-2.39848 -5.51385,-5.32836 0,-2.92989 2.48186,-5.32837 5.51385,-5.32837 h 15.17516 v -10.3015 c 0,-3.12597 1.75246,-3.87479 3.89926,-1.66529 l 12.87806,13.27686 c 2.14405,2.20949 2.14405,5.8271 0,8.03659 z"
       id="path3-7" />
    <path
       inkscape:connector-curvature="0"
       d="m 761.36919,650.3088 v 86.12474 H 678.42211 V 650.3088 c 0,-1.27876 -0.38709,-2.43589 -1.01265,-3.27681 -0.62556,-0.83744 -1.48959,-1.3552 -2.44348,-1.3552 -1.90779,0 -3.45613,2.0745 -3.45613,4.63201 v 86.12474 h -85.56338 c -1.2684,0 -2.41583,0.38919 -3.24876,1.01814 -0.83293,0.62895 -1.34789,1.49767 -1.34789,2.45674 0,1.91813 2.05985,3.47487 4.59665,3.47487 h 85.56338 v 83.39697 h -85.56338 c -1.2684,0 -2.41583,0.38919 -3.24876,1.01814 -0.83293,0.62895 -1.34789,1.49767 -1.34789,2.45673 0,1.91813 2.05985,3.47488 4.59665,3.47488 h 85.56338 v 85.30467 c 0,1.27876 0.38708,2.43589 1.01264,3.27681 0.62556,0.83744 1.4896,1.3552 2.44349,1.3552 1.90778,0 3.45613,-2.0745 3.45613,-4.63201 v -85.30467 h 82.94708 v 85.30467 c 0,1.27876 0.38709,2.43589 1.01265,3.27681 0.62556,0.83744 1.48959,1.3552 2.44348,1.3552 1.90779,0 3.45613,-2.0745 3.45613,-4.63201 v -85.30467 h 84.23277 c 1.2684,0 2.41583,-0.38919 3.24876,-1.01814 0.82947,-0.62895 1.34443,-1.49767 1.34443,-2.45674 0,-1.91813 -2.05639,-3.47487 -4.59319,-3.47487 h -84.23277 v -83.39697 h 84.23277 c 1.2684,0 2.41583,-0.38919 3.24876,-1.01814 0.82947,-0.62895 1.34443,-1.49767 1.34443,-2.45673 0,-1.91813 -2.05639,-3.47488 -4.59319,-3.47488 H 768.28145 V 650.3088 c 0,-1.27876 -0.38709,-2.43589 -1.01264,-3.27681 -0.62556,-0.83744 -1.4896,-1.3552 -2.44349,-1.3552 -1.90778,0 -3.45613,2.0745 -3.45613,4.63201 z m 0,176.47146 h -82.94708 v -83.39697 h 82.94708 v 83.39697 z"
       id="path3-4" />
    <path
       d="m 595.93531,660.89997 c 2.84439,-2.8633 7.46178,-2.86677 10.30963,0 l 23.11113,23.23648 23.11113,-23.23648 c 2.84785,-2.86677 7.46524,-2.85982 10.30963,0 1.42393,1.43165 2.13589,3.30808 2.13589,5.18451 -0.003,1.87296 -0.71196,3.74939 -2.13589,5.18451 l -23.11113,23.23648 23.11113,23.23648 c 2.84785,2.8633 2.8444,7.50573 0,10.36555 -1.42392,1.43165 -3.29023,2.14747 -5.15654,2.15095 -1.86285,-0.003 -3.72916,-0.71583 -5.15654,-2.15095 l -23.11114,-23.23648 -23.11113,23.23648 c -2.84785,2.8633 -7.46524,2.85982 -10.30963,0 -2.84439,-2.85982 -2.84785,-7.50225 0,-10.36555 l 23.11113,-23.23648 -23.11113,-23.23648 c -2.84439,-2.87024 -2.84439,-7.5092 0.003,-10.36902 z"
       id="path9-0"
       inkscape:connector-curvature="0" />
    <path
       inkscape:connector-curvature="0"
       d="m 776.16488,842.34769 c 2.84439,-2.85982 7.46178,-2.86329 10.30963,0 l 23.11113,23.23648 23.11114,-23.23648 c 2.84785,-2.86329 7.46523,-2.85982 10.30963,0 1.42392,1.43165 2.13589,3.30808 2.13589,5.18452 -0.003,1.87295 -0.71197,3.74938 -2.13589,5.18451 l -23.11113,23.23648 23.11113,23.23648 c 2.84785,2.86329 2.84439,7.50573 0,10.36555 -1.42393,1.43164 -3.29024,2.14747 -5.15655,2.15094 -1.86285,-0.003 -3.72916,-0.71582 -5.15654,-2.15094 l -23.11113,-23.23648 -23.11113,23.23648 c -2.84785,2.86329 -7.46524,2.85982 -10.30964,0 -2.84439,-2.85982 -2.84785,-7.50226 0,-10.36555 l 23.11114,-23.23648 -23.11114,-23.23648 c -2.84439,-2.86677 -2.84093,-7.50573 0.003,-10.36903 z"
       id="path15-9" />
    <path
       d="m 588.3407,876.75162 c 0,21.91255 17.66773,39.67611 39.46208,39.67611 21.79435,0 39.46208,-17.76356 39.46208,-39.67611 0,-21.91255 -17.66773,-39.67611 -39.46208,-39.67611 -21.79435,0 -39.46208,17.76356 -39.46208,39.67611 z m 69.63754,0.26061 c 0,16.89832 -13.62406,30.59974 -30.43467,30.59974 -16.80715,0 -30.43467,-13.70142 -30.43467,-30.59974 0,-16.90178 13.62752,-30.59973 30.43467,-30.59973 16.81061,0 30.43467,13.69795 30.43467,30.59973 z"
       id="path19-4"
       inkscape:connector-curvature="0" />
    <path
       style="fill:#000000"
       inkscape:connector-curvature="0"
       d="m 760.22119,752.40432 -3.73769,-2.66863 2.44733,-3.82628 -4.4802,1.1715 -1.55717,-4.2431 -1.84913,4.13075 -4.38791,-1.46457 2.17382,3.97933 -1.60582,0.99076 c -5.28144,1.30582 -12.64524,4.69492 -18.9343,15.52898 l -5.33093,-3.4526 -6.30752,9.16922 c -2.68225,-0.87353 -5.55159,-1.35385 -8.53839,-1.35385 -14.82661,0 -26.8468,11.66282 -26.8468,26.04962 0,14.38761 12.01935,26.04961 26.8468,26.04961 14.82745,0 26.8468,-11.662 26.8468,-26.04961 0,-5.78989 -1.94897,-11.13691 -5.24368,-15.46223 l 6.675,-9.70246 -6.08016,-3.93862 c 6.18755,-10.76405 13.25099,-13.65818 18.28073,-14.74256 l 0.88345,0.16119 -0.49584,4.47756 3.51369,-2.94298 3.30142,3.16767 -0.18206,-4.49954 4.60856,-0.52916 z m -45.44382,24.65587 c -0.19716,0.40705 -0.69804,0.58208 -1.11502,0.3924 -8.48134,-3.84745 -18.60877,-0.28168 -22.57467,7.9497 -0.14263,0.29551 -0.44466,0.46892 -0.76012,0.46892 -0.11914,0 -0.23995,-0.0244 -0.35489,-0.0765 -0.4195,-0.1905 -0.60072,-0.67489 -0.4044,-1.08275 4.35771,-9.04385 15.4869,-12.96212 24.80471,-8.7345 0.41949,0.19132 0.60071,0.67571 0.40439,1.08276 z m 10.55699,-10.80068 -6.30835,9.16922 c -0.16109,0.23528 -0.42789,0.36227 -0.69888,0.36227 -0.16025,0 -0.32217,-0.044 -0.4648,-0.13676 -0.3851,-0.24993 -0.48913,-0.75468 -0.23156,-1.12916 l 6.30752,-9.16923 c 0.25757,-0.37367 0.77858,-0.47543 1.16367,-0.22469 0.3851,0.24912 0.48913,0.75386 0.2324,1.12835 z m 27.21428,-13.59224 -2.0379,1.70636 0.2433,-2.19971 c 0.31966,-0.0505 0.62673,-0.0961 0.91786,-0.13921 0.36244,-0.0537 0.69971,-0.10339 1.01266,-0.15549 l -0.40188,-2.31693 c -0.3012,0.0488 -0.62672,0.0977 -0.9749,0.14898 -0.2861,0.0423 -0.58981,0.0879 -0.90779,0.13677 l -1.23751,-2.26483 2.54633,0.8491 1.07223,-2.39508 0.90191,2.46021 2.60087,-0.67896 -1.42041,2.21924 2.16879,1.54842 -2.6747,0.30773 0.10571,2.61083 -1.91457,-1.83743 z"
       id="path3-2" />
    <polygon
       style="fill:none;stroke:#000000;stroke-width:4"
       transform="matrix(1.12537,0,0,1.1059242,641.74421,731.67675)"
       points="105.25,4.246 87.25,14.246 83.25,7.246 71.25,13.246 62.25,5.246 56.25,17.246 39.25,5.246 43.25,24.246 25.25,25.246 37.25,38.246 25.25,44.246 36.25,47.246 23.25,60.246 38.25,64.246 24.25,93.246 50.25,80.246 51.25,95.246 64.25,79.246 75.25,95.246 80.25,77.246 87.25,79.246 86.25,70.246 116.25,95.246 98.25,59.246 104.25,53.246 94.25,47.246 113.25,44.246 98.25,36.246 113.25,26.246 98.25,25.246 "
       id="polygon6" />
  </g>
</svg>
